<?xml version="1.0" encoding="UTF-8" standalone="no"?>
<svg
   width="42"
   height="42"
   viewBox="0 0 42 42"
   fill="none"
   version="1.1"
   id="svg551"
   sodipodi:docname="icon-design.svg"
   inkscape:version="1.2.1 (2ed6d7ae0b, 2022-08-22, custom)"
   xmlns:inkscape="http://www.inkscape.org/namespaces/inkscape"
   xmlns:sodipodi="http://sodipodi.sourceforge.net/DTD/sodipodi-0.dtd"
   xmlns="http://www.w3.org/2000/svg"
   xmlns:svg="http://www.w3.org/2000/svg">
  <sodipodi:namedview
     id="namedview553"
     pagecolor="#ffffff"
     bordercolor="#000000"
     borderopacity="0.25"
     inkscape:showpageshadow="2"
     inkscape:pageopacity="0.0"
     inkscape:pagecheckerboard="0"
     inkscape:deskcolor="#d1d1d1"
     showgrid="false"
     inkscape:zoom="5.6190476"
     inkscape:cx="4.0042373"
     inkscape:cy="21.088983"
     inkscape:window-width="1280"
     inkscape:window-height="736"
     inkscape:window-x="0"
     inkscape:window-y="27"
     inkscape:window-maximized="1"
     inkscape:current-layer="svg551" />
  <path
     opacity="0.15"
     fill-rule="evenodd"
     clip-rule="evenodd"
     d="m 40.6377,19.814 c -0.2194,-0.0912 -0.4719,-0.0408 -0.6399,0.1276 l -1.7584,1.7641 V 9.71161 c 0,-0.32533 -0.2628,-0.589 -0.5871,-0.589 h -4.511 l 1.6375,-1.64276 7e-4,-7.9e-4 1.5778,-1.58289 c 0.3381,-0.33913 0.5243,-0.79026 0.5243,-1.26993 0,-0.47966 -0.1862,-0.93064 -0.5243,-1.26993 L 34.5328,1.52591 C 34.1948,1.18677 33.7451,1 33.2669,1 32.7888,1 32.3392,1.18677 32.0011,1.52591 L 30.4225,3.10958 28.515,5.02322 24.4288,9.12254 H 6.2047 V 3.29564 C 6.2047,2.9703 5.94181,2.70665 5.61759,2.70665 3.07149,2.70681 1,4.7848 1,7.33924 V 32.3559 c 0,0.0435 0.005,0.0858 0.01391,0.1266 0.08109,1.0839 0.54851,2.0909 1.32969,2.8554 0.835,0.817 1.93727,1.2669 3.10383,1.2669 H 23.3879 l -3.3788,3.3898 C 19.8412,40.163 19.791,40.4162 19.8818,40.6364 19.9727,40.8565 20.1868,41 20.4243,41 H 40.413 c 0.3242,0 0.5871,-0.2636 0.5871,-0.589 V 20.3582 c 0,-0.2382 -0.1431,-0.453 -0.3624,-0.5442 z M 32.8315,2.35897 c 0.24,-0.24093 0.6311,-0.24093 0.8711,0 l 1.8246,1.83048 c 0.2401,0.24085 0.2401,0.63297 0,0.8739 L 34.3638,6.23053 31.668,3.52615 Z m -1.9938,2.00016 2.6957,2.7043 -1.0772,1.08074 -2.6956,-2.7043 z M 18.3967,21.76 16.715,22.3556 15.5945,21.2315 16.1882,19.5444 Z m 17.4326,8.4107 -5.6586,5.6586 C 30.1077,35.8923 30.1523,36 30.2414,36 H 36 v -5.7586 c 0,-0.0891 -0.1077,-0.1337 -0.1707,-0.0707 z M 16,18.5 19.5,22 32.5,9 29,5.5 Z"
     fill="url(#paint0_linear)"
     id="path518"
     style="display:inline;fill:#008080" />
  <path
     d="M 36.3998,29.2549 C 36.1804,29.1637 35.9279,29.2141 35.76,29.3825 l -6.4161,6.4368 c -0.1679,0.1685 -0.2182,0.4218 -0.1272,0.6419 0.0908,0.2202 0.305,0.3636 0.5424,0.3636 h 6.4161 c 0.3243,0 0.5871,-0.2637 0.5871,-0.589 V 29.799 c -1e-4,-0.2381 -0.1431,-0.4529 -0.3625,-0.5441 z m -5.2235,6.392 4.4116,-4.4259 v 4.4259 z"
     fill="url(#paint1_linear)"
     stroke="url(#paint2_linear)"
     stroke-width="0.25"
     id="path520"
     style="display:inline;fill:#008080;stroke:none;stroke-opacity:1;fill-opacity:1" />
  <path
     d="m 40.6377,19.814 c -0.2194,-0.0912 -0.4719,-0.0408 -0.6399,0.1276 l -1.7584,1.7641 V 9.71161 c 0,-0.32533 -0.2628,-0.589 -0.5871,-0.589 h -4.511 l 1.6375,-1.64276 c 3e-4,-2.3e-4 5e-4,-5.6e-4 7e-4,-7.9e-4 l 1.5778,-1.58289 c 0.3381,-0.33913 0.5243,-0.79026 0.5243,-1.26993 0,-0.47966 -0.1862,-0.93064 -0.5243,-1.26993 L 34.5328,1.52591 C 34.1948,1.18677 33.7451,1 33.2669,1 32.7888,1 32.3392,1.18677 32.0011,1.52591 L 30.4225,3.10958 28.515,5.02322 24.4288,9.12254 H 6.2047 V 3.29564 C 6.2047,2.9703 5.94181,2.70665 5.61759,2.70665 3.07149,2.70681 1,4.7848 1,7.33924 V 32.3559 c 0,0.0435 0.005,0.0858 0.01391,0.1266 0.08109,1.0839 0.54851,2.0909 1.32969,2.8554 0.835,0.817 1.93727,1.2669 3.10383,1.2669 H 23.3879 l -3.3788,3.3898 C 19.8412,40.163 19.791,40.4162 19.8818,40.6364 19.9727,40.8565 20.1868,41 20.4243,41 H 40.413 c 0.3242,0 0.5871,-0.2636 0.5871,-0.589 V 20.3582 c 0,-0.2382 -0.1431,-0.453 -0.3624,-0.5442 z M 32.8315,2.35897 c 0.24,-0.24093 0.6311,-0.24093 0.8711,0 l 1.8246,1.83048 c 0.2401,0.24085 0.2401,0.63297 0,0.8739 L 34.3638,6.23053 31.668,3.52615 Z m -1.9938,2.00016 2.6957,2.7043 -1.0772,1.08074 -2.6956,-2.7043 z M 39.826,26.9764 h -1.0832 c -0.3243,0 -0.5871,0.2637 -0.5871,0.589 0,0.3254 0.2628,0.589 0.5871,0.589 h 1.0832 v 1.7749 h -1.0832 c -0.3243,0 -0.5871,0.2638 -0.5871,0.5891 0,0.3253 0.2628,0.589 0.5871,0.589 h 1.0832 v 1.7748 h -1.0832 c -0.3243,0 -0.5871,0.2636 -0.5871,0.589 0,0.3253 0.2628,0.589 0.5871,0.589 h 1.0832 v 1.7749 h -1.0832 c -0.3243,0 -0.5871,0.2637 -0.5871,0.589 0,0.3254 0.2628,0.589 0.5871,0.589 h 1.0832 v 2.8091 H 21.8416 l 5.9303,-5.9492 c 0.2293,-0.2302 0.2293,-0.603 0,-0.833 -0.0263,-0.0265 -0.0546,-0.0494 -0.0842,-0.0697 -0.2286,-0.157 -0.5431,-0.134 -0.7462,0.0697 l -2.3793,2.387 H 5.44751 c -1.78063,0 -3.21407,-1.3946 -3.27048,-3.1777 0.00336,-0.112 0.01203,-0.223 0.02594,-0.3327 8e-5,-6e-4 1.6e-4,-0.0012 2.4e-4,-0.0019 0.00656,-0.0521 0.01445,-0.104 0.02343,-0.1555 0.00102,-0.0059 0.00211,-0.0119 0.00313,-0.0177 0.0082,-0.046 0.01742,-0.0918 0.0275,-0.1374 0.00281,-0.0127 0.00578,-0.0254 0.00875,-0.038 0.0089,-0.0386 0.01851,-0.0769 0.02883,-0.1151 0.00562,-0.0207 0.01148,-0.0411 0.0175,-0.0617 0.00859,-0.03 0.0175,-0.0598 0.02695,-0.0894 0.00945,-0.0295 0.01953,-0.0588 0.02977,-0.088 0.0071,-0.0204 0.01414,-0.0409 0.02179,-0.0612 0.0143,-0.0386 0.02946,-0.0767 0.04508,-0.1146 0.00445,-0.0109 0.00883,-0.0219 0.01344,-0.0328 0.02008,-0.0471 0.04094,-0.0935 0.06297,-0.1395 9.3e-4,-0.0019 0.00179,-0.0039 0.00273,-0.0058 0.45922,-0.9534 1.34243,-1.6642 2.40235,-1.8848 0.00297,-6e-4 0.00594,-0.0013 0.00891,-0.002 0.04859,-0.0099 0.09765,-0.0184 0.14703,-0.0263 0.0082,-0.0013 0.0164,-0.0031 0.02476,-0.0043 C 5.14274,28.9338 5.18782,28.9285 5.2329,28.9234 5.24556,28.922 5.25813,28.92 5.27087,28.9188 5.31438,28.9144 5.35829,28.9115 5.4022,28.9087 c 0.0139,-9e-4 0.02781,-0.0023 0.04172,-0.003 0.0575,-0.0029 0.11546,-0.0044 0.17367,-0.0044 0.32422,0 0.58711,-0.2636 0.58711,-0.589 v -4.2707 c 0,-0.3253 -0.26289,-0.5889 -0.58711,-0.5889 -0.32422,0 -0.58711,0.2636 -0.58711,0.5889 v 3.7188 C 4.03907,27.8862 3.11883,28.3298 2.39321,29.0407 2.31688,29.1154 2.24453,29.1932 2.17406,29.2722 V 7.33924 c 0,-1.70398 1.23641,-3.12393 2.85634,-3.40436 V 21.6858 c 0,0.3252 0.26289,0.589 0.58711,0.589 0.32422,0 0.58711,-0.2638 0.58711,-0.589 V 10.3006 H 23.2547 l -3.2457,3.2561 c -0.2293,0.2301 -0.2293,0.603 0,0.833 0.2293,0.2299 0.601,0.2299 0.8303,0 l 4.2479,-4.2616 c 10e-5,-10e-5 2e-4,-3e-4 3e-4,-4e-4 l 3.8426,-3.85492 2.6956,2.70437 -0.3163,0.31726 c -2e-4,2.4e-4 -5e-4,4.7e-4 -7e-4,7.2e-4 L 19.4705,21.1715 16.7749,18.4672 19.1083,16.1263 c 0.2293,-0.2302 0.2293,-0.603 0,-0.833 -0.2293,-0.2299 -0.601,-0.2299 -0.8302,0 l -2.7487,2.7574 c -0.0147,0.0148 -0.0284,0.0303 -0.0413,0.0463 -0.0043,0.0054 -0.0081,0.0111 -0.0122,0.0166 -0.0083,0.0111 -0.0164,0.0222 -0.024,0.0338 -0.0043,0.0068 -0.0082,0.0137 -0.0123,0.0206 -0.0064,0.011 -0.0127,0.0222 -0.0184,0.0335 -0.0037,0.0073 -0.0071,0.0149 -0.0105,0.0225 -0.0053,0.0115 -0.0101,0.0233 -0.0146,0.035 -0.0015,0.0042 -0.0036,0.0081 -0.0051,0.0122 l -1.1438,3.2508 -0.7798,2.2164 c -0.0103,0.0294 -0.0178,0.0594 -0.0233,0.0896 h -1.9525 c -0.3242,0 -0.5871,0.2636 -0.5871,0.5889 0,0.3254 0.2629,0.589 0.5871,0.589 h 16.2589 c 0.3243,0 0.5871,-0.2636 0.5871,-0.589 0,-0.3253 -0.2628,-0.5889 -0.5871,-0.5889 H 16.0854 l 3.5805,-1.2681 c 0.003,-10e-4 0.0058,-0.0025 0.0087,-0.0036 0.014,-0.0052 0.0276,-0.0111 0.0411,-0.0172 0.0054,-0.0025 0.0108,-0.0049 0.0161,-0.0075 0.014,-0.007 0.0278,-0.0148 0.0414,-0.0231 0.0044,-0.0027 0.0089,-0.0051 0.0132,-0.0078 0.0142,-0.0091 0.0279,-0.0191 0.0415,-0.0296 0.0033,-0.0025 0.0068,-0.0048 0.0101,-0.0075 0.0163,-0.0132 0.0323,-0.0273 0.0475,-0.0426 L 31.9671,10.3007 h 5.0981 v 12.583 l -8.3982,8.4252 c -0.2293,0.2302 -0.2293,0.603 0,0.833 0.0143,0.0144 0.0292,0.0279 0.0446,0.0404 0.1077,0.0881 0.2392,0.1322 0.3706,0.1322 0.1314,0 0.2629,-0.0441 0.3705,-0.1322 0.0154,-0.0125 0.0303,-0.026 0.0446,-0.0404 l 3e-4,-2e-4 L 39.826,21.7799 Z M 18.3967,21.76 16.715,22.3556 15.5945,21.2315 16.1882,19.5444 Z"
     fill="url(#paint3_linear)"
     stroke="url(#paint4_linear)"
     stroke-width="0.25"
     id="path522"
     style="display:inline;fill:#008080;stroke:none" />
  <defs
     id="defs549">
    <linearGradient
       id="paint0_linear"
       x1="3.26667"
       y1="1"
       x2="37.8"
       y2="39.1334"
       gradientUnits="userSpaceOnUse">
      <stop
         offset="0.259336"
         stop-color="#FFDB6E"
         id="stop524" />
      <stop
         offset="1"
         stop-color="#FFBC5E"
         id="stop526" />
    </linearGradient>
    <linearGradient
       id="paint1_linear"
       x1="29.602"
       y1="29.21"
       x2="36.1781"
       y2="36.4484"
       gradientUnits="userSpaceOnUse">
      <stop
         offset="0.259336"
         stop-color="#FFDB6E"
         id="stop529" />
      <stop
         offset="1"
         stop-color="#FFBC5E"
         id="stop531" />
    </linearGradient>
    <linearGradient
       id="paint2_linear"
       x1="29.602"
       y1="29.21"
       x2="36.1781"
       y2="36.4484"
       gradientUnits="userSpaceOnUse">
      <stop
         offset="0.259336"
         stop-color="#FFDB6E"
         id="stop534" />
      <stop
         offset="1"
         stop-color="#FFBC5E"
         id="stop536" />
    </linearGradient>
    <linearGradient
       id="paint3_linear"
       x1="3.26667"
       y1="1"
       x2="37.8"
       y2="39.1334"
       gradientUnits="userSpaceOnUse">
      <stop
         offset="0.259336"
         stop-color="#FFDB6E"
         id="stop539" />
      <stop
         offset="1"
         stop-color="#FFBC5E"
         id="stop541" />
    </linearGradient>
    <linearGradient
       id="paint4_linear"
       x1="3.26667"
       y1="1"
       x2="37.8"
       y2="39.1334"
       gradientUnits="userSpaceOnUse">
      <stop
         offset="0.259336"
         stop-color="#FFDB6E"
         id="stop544" />
      <stop
         offset="1"
         stop-color="#FFBC5E"
         id="stop546" />
    </linearGradient>
  </defs>
</svg>
